<svg width="161" height="183" viewBox="0 0 161 183" fill="none" xmlns="http://www.w3.org/2000/svg">
<g filter="url(#filter0_d_13:360)">
<path d="M41.9688 34.875C41.9688 36.6042 41.6458 38.0938 41 39.3438C40.375 40.5938 39.5312 41.6562 38.4688 42.5312C37.4062 43.4062 36.1771 44.125 34.7812 44.6875C33.4062 45.2292 31.9688 45.6562 30.4688 45.9688C28.9688 46.2812 27.4583 46.4896 25.9375 46.5938C24.4375 46.6979 23.0312 46.75 21.7188 46.75C20.4271 46.75 19.0833 46.6979 17.6875 46.5938C16.3125 46.5104 14.9375 46.3542 13.5625 46.125C12.1875 45.8958 10.8333 45.5938 9.5 45.2188C8.16667 44.8229 6.90625 44.3333 5.71875 43.75L5.65625 3.5C6.82292 3.02083 8.0625 2.59375 9.375 2.21875C10.6875 1.82292 12.0208 1.5 13.375 1.25C14.75 0.979167 16.1146 0.78125 17.4688 0.65625C18.8229 0.510417 20.1354 0.4375 21.4062 0.4375C22.8854 0.4375 24.375 0.53125 25.875 0.71875C27.3958 0.90625 28.8542 1.21875 30.25 1.65625C31.6458 2.09375 32.9479 2.66667 34.1562 3.375C35.3646 4.0625 36.4167 4.91667 37.3125 5.9375C38.2292 6.95833 38.9375 8.14583 39.4375 9.5C39.9583 10.8542 40.2188 12.4167 40.2188 14.1875C40.2188 15.3542 40.0521 16.4479 39.7188 17.4688C39.3854 18.4896 38.9062 19.4062 38.2812 20.2188C37.6562 21.0312 36.8958 21.7292 36 22.3125C35.1042 22.875 34.0938 23.2917 32.9688 23.5625C34.3229 23.9167 35.5521 24.4375 36.6562 25.125C37.7812 25.8125 38.7292 26.6458 39.5 27.625C40.2917 28.6042 40.8958 29.7083 41.3125 30.9375C41.75 32.1667 41.9688 33.4792 41.9688 34.875ZM26.0938 17.0625C26.0938 16.4583 25.9688 15.9479 25.7188 15.5312C25.4688 15.0938 25.1562 14.7396 24.7812 14.4688C24.4271 14.1979 24.0312 14 23.5938 13.875C23.1771 13.75 22.8021 13.6875 22.4688 13.6875C22.0521 13.6875 21.6458 13.75 21.25 13.875C20.8542 14 20.4688 14.1458 20.0938 14.3125L19.9062 21.25C20.3854 21.25 20.9792 21.2083 21.6875 21.125C22.3958 21.0417 23.0729 20.8646 23.7188 20.5938C24.3854 20.3021 24.9479 19.8854 25.4062 19.3438C25.8646 18.7812 26.0938 18.0208 26.0938 17.0625ZM21.6562 27.25C21.0521 27.25 20.4688 27.3125 19.9062 27.4375L19.7812 34.5625C20.0938 34.625 20.3958 34.6875 20.6875 34.75C21 34.7917 21.3021 34.8125 21.5938 34.8125C22.0312 34.8125 22.5104 34.7708 23.0312 34.6875C23.5521 34.5833 24.0417 34.3958 24.5 34.125C24.9583 33.8333 25.3333 33.4479 25.625 32.9688C25.9375 32.4896 26.0938 31.8542 26.0938 31.0625C26.0938 30.2708 25.9375 29.625 25.625 29.125C25.3333 28.625 24.9688 28.2396 24.5312 27.9688C24.0938 27.6771 23.6146 27.4896 23.0938 27.4062C22.5729 27.3021 22.0938 27.25 21.6562 27.25ZM77.9062 20.75C77.9062 22.5625 77.7812 24.375 77.5312 26.1875C73.9688 26.4167 70.4271 26.7917 66.9062 27.3125C63.3854 27.8125 59.8646 28.3125 56.3438 28.8125C56.8854 30.3125 57.7292 31.5104 58.875 32.4062C60.0417 33.3021 61.4271 33.75 63.0312 33.75C63.8646 33.75 64.7708 33.5938 65.75 33.2812C66.75 32.9688 67.7396 32.5833 68.7188 32.125C69.6979 31.6458 70.6354 31.1354 71.5312 30.5938C72.4271 30.0521 73.1979 29.5625 73.8438 29.125L72.3438 43.3125C71.5312 43.9375 70.6458 44.4688 69.6875 44.9062C68.75 45.3438 67.7708 45.6979 66.75 45.9688C65.7292 46.2396 64.6979 46.4375 63.6562 46.5625C62.6146 46.6875 61.5938 46.75 60.5938 46.75C58.5312 46.75 56.6458 46.4688 54.9375 45.9062C53.2292 45.3438 51.6771 44.5625 50.2812 43.5625C48.9062 42.5417 47.6979 41.3438 46.6562 39.9688C45.6146 38.5938 44.75 37.0938 44.0625 35.4688C43.375 33.8438 42.8542 32.125 42.5 30.3125C42.1458 28.5 41.9688 26.6667 41.9688 24.8125C41.9688 22.875 42.1458 20.9375 42.5 19C42.8542 17.0625 43.3854 15.1979 44.0938 13.4062C44.8229 11.6146 45.7292 9.95833 46.8125 8.4375C47.9167 6.89583 49.1979 5.55208 50.6562 4.40625C52.1146 3.26042 53.7604 2.36458 55.5938 1.71875C57.4479 1.07292 59.4896 0.75 61.7188 0.75C63.5729 0.75 65.2604 1.01042 66.7812 1.53125C68.3229 2.03125 69.6875 2.73958 70.875 3.65625C72.0833 4.55208 73.125 5.625 74 6.875C74.8958 8.125 75.625 9.5 76.1875 11C76.7708 12.4792 77.1979 14.0521 77.4688 15.7188C77.7604 17.3646 77.9062 19.0417 77.9062 20.75ZM65.4062 19.125C65.4062 18.5417 65.3438 17.9479 65.2188 17.3438C65.0938 16.7188 64.8854 16.1562 64.5938 15.6562C64.3229 15.1562 63.9583 14.75 63.5 14.4375C63.0417 14.1042 62.4688 13.9375 61.7812 13.9375C60.9479 13.9375 60.2083 14.1667 59.5625 14.625C58.9375 15.0625 58.3958 15.625 57.9375 16.3125C57.4792 16.9792 57.1042 17.7083 56.8125 18.5C56.5208 19.2917 56.3021 20.0208 56.1562 20.6875L65.4062 19.8125V19.125ZM112 30C112 32.8542 111.5 35.3229 110.5 37.4062C109.521 39.4688 108.167 41.1771 106.438 42.5312C104.729 43.8646 102.719 44.8542 100.406 45.5C98.1146 46.125 95.6458 46.4375 93 46.4375C91.9792 46.4375 90.8542 46.3021 89.625 46.0312C88.4167 45.7604 87.1875 45.4271 85.9375 45.0312C84.6875 44.6146 83.4792 44.1771 82.3125 43.7188C81.1667 43.2396 80.1458 42.7917 79.25 42.375L80.625 30.125C82.3958 31.1875 84.3542 32 86.5 32.5625C88.6667 33.1042 90.7917 33.375 92.875 33.375C93.2708 33.375 93.75 33.3646 94.3125 33.3438C94.875 33.3021 95.4062 33.2083 95.9062 33.0625C96.4271 32.8958 96.8646 32.6562 97.2188 32.3438C97.5729 32.0312 97.75 31.5833 97.75 31C97.75 30.6042 97.625 30.2708 97.375 30C97.125 29.7083 96.8021 29.4792 96.4062 29.3125C96.0104 29.125 95.5625 28.9896 95.0625 28.9062C94.5625 28.8021 94.0729 28.7292 93.5938 28.6875C93.1146 28.6458 92.6667 28.625 92.25 28.625C91.8333 28.625 91.5 28.625 91.25 28.625C89.4583 28.625 87.8229 28.3438 86.3438 27.7812C84.8854 27.2188 83.625 26.4271 82.5625 25.4062C81.5208 24.3646 80.7083 23.1146 80.125 21.6562C79.5417 20.1771 79.25 18.5417 79.25 16.75C79.25 14.2917 79.7396 12.0938 80.7188 10.1562C81.7188 8.19792 83.0417 6.54167 84.6875 5.1875C86.3542 3.8125 88.2604 2.76042 90.4062 2.03125C92.5521 1.30208 94.7708 0.9375 97.0625 0.9375C98.0833 0.9375 99.1354 0.979167 100.219 1.0625C101.302 1.125 102.375 1.25 103.438 1.4375C104.521 1.625 105.573 1.86458 106.594 2.15625C107.615 2.44792 108.583 2.8125 109.5 3.25L108.312 15.9375C106.896 15.4583 105.406 15.0625 103.844 14.75C102.302 14.4167 100.792 14.25 99.3125 14.25C99.0417 14.25 98.6875 14.2604 98.25 14.2812C97.8333 14.2812 97.3854 14.3125 96.9062 14.375C96.4479 14.4167 95.9792 14.4896 95.5 14.5938C95.0208 14.6979 94.5938 14.8438 94.2188 15.0312C93.8438 15.1979 93.5417 15.4271 93.3125 15.7188C93.0833 16.0104 92.9792 16.3542 93 16.75C93.0208 17.2083 93.1875 17.5625 93.5 17.8125C93.8333 18.0625 94.25 18.25 94.75 18.375C95.2708 18.4792 95.8333 18.5312 96.4375 18.5312C97.0625 18.5312 97.6771 18.5208 98.2812 18.5C98.8854 18.4583 99.4479 18.4271 99.9688 18.4062C100.49 18.3646 100.917 18.3542 101.25 18.375C102.917 18.4792 104.417 18.8333 105.75 19.4375C107.083 20.0417 108.208 20.8438 109.125 21.8438C110.062 22.8438 110.771 24.0417 111.25 25.4375C111.75 26.8125 112 28.3333 112 30ZM146.375 1.9375L146.062 15.1875L136.75 15.5625L135.625 44.5625L122.438 45.25L121.25 16.25L111.938 16.75L112.312 2L146.375 1.9375ZM42 145.188C42 147.208 41.6979 149 41.0938 150.562C40.4896 152.125 39.6562 153.5 38.5938 154.688C37.5521 155.854 36.3229 156.844 34.9062 157.656C33.4896 158.448 31.9688 159.104 30.3438 159.625C28.7396 160.125 27.0729 160.5 25.3438 160.75C23.6146 160.979 21.9167 161.104 20.25 161.125V174.438H5.6875C5.6875 172.062 5.6875 169.75 5.6875 167.5C5.70833 165.25 5.71875 163.021 5.71875 160.812C5.73958 158.583 5.75 156.344 5.75 154.094C5.77083 151.844 5.79167 149.521 5.8125 147.125C5.85417 144.583 5.86458 142.042 5.84375 139.5C5.82292 136.958 5.875 134.396 6 131.812C8.66667 131.021 11.3333 130.427 14 130.031C16.6667 129.635 19.4167 129.438 22.25 129.438C23.8542 129.438 25.4583 129.573 27.0625 129.844C28.6667 130.094 30.1979 130.5 31.6562 131.062C33.1354 131.625 34.5 132.333 35.75 133.188C37.0208 134.021 38.1146 135.021 39.0312 136.188C39.9479 137.354 40.6667 138.688 41.1875 140.188C41.7292 141.688 42 143.354 42 145.188ZM28.125 146.25C28.125 144.896 27.7083 143.844 26.875 143.094C26.0625 142.323 25 141.938 23.6875 141.938C23.25 141.938 22.7917 141.979 22.3125 142.062C21.8542 142.125 21.4167 142.208 21 142.312L20.625 151.438C20.9167 151.479 21.1979 151.5 21.4688 151.5C21.7396 151.5 22.0208 151.5 22.3125 151.5C23.0625 151.5 23.7812 151.375 24.4688 151.125C25.1771 150.875 25.8021 150.521 26.3438 150.062C26.8854 149.583 27.3125 149.031 27.625 148.406C27.9583 147.76 28.125 147.042 28.125 146.25ZM71.1875 157.438L69.875 171.312L43.5625 173.375L44.5625 128.75H60.8125L58.5 157.438H71.1875ZM112.062 171.312L96.5625 173.312L94.6875 166.25H87.5625L86 173.312L70.0625 171.75L82.5 130.125L99.875 129.25L112.062 171.312ZM93.5625 156.688L91.1875 145.812L88.875 156.688H93.5625ZM151.5 158.188C151.5 160.542 151.469 162.875 151.406 165.188C151.365 167.479 151.292 169.792 151.188 172.125L133.188 171.812C133.812 168.125 134.354 164.448 134.812 160.781C135.271 157.094 135.5 153.375 135.5 149.625C135.5 149.354 135.49 148.917 135.469 148.312C135.448 147.708 135.406 147.031 135.344 146.281C135.281 145.51 135.188 144.729 135.062 143.938C134.958 143.125 134.802 142.385 134.594 141.719C134.406 141.052 134.167 140.51 133.875 140.094C133.604 139.656 133.271 139.438 132.875 139.438C132.167 139.438 131.562 139.646 131.062 140.062C130.583 140.479 130.177 141.021 129.844 141.688C129.531 142.333 129.281 143.062 129.094 143.875C128.906 144.688 128.76 145.5 128.656 146.312C128.573 147.125 128.51 147.896 128.469 148.625C128.448 149.333 128.438 149.917 128.438 150.375C128.333 154.062 128.25 157.729 128.188 161.375C128.125 165 128.042 168.667 127.938 172.375L112 173.062C112.417 165.708 112.812 158.396 113.188 151.125C113.583 143.854 113.896 136.542 114.125 129.188L128.875 128.438L128.75 133.438C129.333 132.729 129.958 132.062 130.625 131.438C131.312 130.812 132.042 130.281 132.812 129.844C133.583 129.385 134.396 129.031 135.25 128.781C136.125 128.51 137.042 128.375 138 128.375C139.771 128.375 141.323 128.667 142.656 129.25C143.99 129.833 145.135 130.625 146.094 131.625C147.052 132.625 147.854 133.812 148.5 135.188C149.146 136.542 149.667 137.99 150.062 139.531C150.458 141.073 150.76 142.688 150.969 144.375C151.177 146.042 151.312 147.688 151.375 149.312C151.458 150.938 151.5 152.51 151.5 154.031C151.5 155.552 151.5 156.938 151.5 158.188Z" fill="white"/>
<path d="M38.6875 65.9375L38.375 79.1875L29.0625 79.5625L27.9375 108.562L14.75 109.25L13.5625 80.25L4.25 80.75L4.625 66L38.6875 65.9375ZM78.4688 86.0625C78.4688 87.9583 78.25 89.7917 77.8125 91.5625C77.375 93.3125 76.7396 94.9583 75.9062 96.5C75.0938 98.0417 74.0938 99.4583 72.9062 100.75C71.7396 102.021 70.4167 103.115 68.9375 104.031C67.4792 104.948 65.8854 105.667 64.1562 106.188C62.4271 106.688 60.5938 106.938 58.6562 106.938C56.7812 106.938 54.9896 106.698 53.2812 106.219C51.5938 105.74 50.0104 105.073 48.5312 104.219C47.0521 103.344 45.7083 102.302 44.5 101.094C43.3125 99.8646 42.2917 98.5104 41.4375 97.0312C40.6042 95.5312 39.9479 93.9271 39.4688 92.2188C39.0104 90.5104 38.7812 88.7292 38.7812 86.875C38.7812 85.0625 39 83.2917 39.4375 81.5625C39.875 79.8125 40.5 78.1667 41.3125 76.625C42.1458 75.0833 43.1458 73.6667 44.3125 72.375C45.4792 71.0833 46.7812 69.9688 48.2188 69.0312C49.6771 68.0938 51.25 67.3646 52.9375 66.8438C54.625 66.3229 56.4062 66.0625 58.2812 66.0625C61.3021 66.0625 64.0521 66.5312 66.5312 67.4688C69.0312 68.4062 71.1562 69.75 72.9062 71.5C74.6771 73.2292 76.0417 75.3333 77 77.8125C77.9792 80.2708 78.4688 83.0208 78.4688 86.0625ZM64.5938 86.875C64.5938 85.9792 64.4583 85.1146 64.1875 84.2812C63.9375 83.4271 63.5625 82.6771 63.0625 82.0312C62.5625 81.3646 61.9375 80.8333 61.1875 80.4375C60.4583 80.0208 59.6146 79.8125 58.6562 79.8125C57.6771 79.8125 56.8021 79.9896 56.0312 80.3438C55.2604 80.6979 54.5938 81.1875 54.0312 81.8125C53.4896 82.4167 53.0729 83.1354 52.7812 83.9688C52.4896 84.7812 52.3438 85.6458 52.3438 86.5625C52.3438 87.4375 52.4688 88.3125 52.7188 89.1875C52.9688 90.0625 53.3438 90.8542 53.8438 91.5625C54.3438 92.2708 54.9583 92.8438 55.6875 93.2812C56.4375 93.7188 57.3021 93.9375 58.2812 93.9375C59.2604 93.9375 60.1354 93.75 60.9062 93.375C61.6979 92.9792 62.3646 92.4583 62.9062 91.8125C63.4479 91.1458 63.8646 90.3854 64.1562 89.5312C64.4479 88.6771 64.5938 87.7917 64.5938 86.875ZM117.906 66C116.969 73.3333 116.167 80.6354 115.5 87.9062C114.833 95.1562 114.198 102.458 113.594 109.812L100.781 110.75L101.344 105.938C100.927 106.417 100.438 106.833 99.875 107.188C99.3333 107.542 98.75 107.833 98.125 108.062C97.5 108.271 96.8542 108.427 96.1875 108.531C95.5208 108.615 94.8854 108.646 94.2812 108.625C92.8646 108.604 91.5312 108.333 90.2812 107.812C89.0312 107.271 87.8854 106.562 86.8438 105.688C85.8021 104.792 84.8646 103.76 84.0312 102.594C83.1979 101.406 82.4896 100.167 81.9062 98.875C81.3438 97.5625 80.9062 96.2292 80.5938 94.875C80.3021 93.5208 80.1562 92.2083 80.1562 90.9375C80.1562 89.0625 80.1875 87.125 80.25 85.125C80.3333 83.1042 80.4688 81.0833 80.6562 79.0625C80.8438 77.0417 81.0833 75.0417 81.375 73.0625C81.6875 71.0833 82.0729 69.1875 82.5312 67.375C85.0729 67.5 87.625 67.6146 90.1875 67.7188C92.75 67.8229 95.3021 67.8542 97.8438 67.8125C97.3646 69.625 96.8854 71.4479 96.4062 73.2812C95.9479 75.0938 95.5312 76.9271 95.1562 78.7812C94.7812 80.6146 94.4792 82.4583 94.25 84.3125C94.0208 86.1667 93.9062 88.0417 93.9062 89.9375C93.9062 90.375 93.9271 91 93.9688 91.8125C94.0104 92.625 94.1146 93.4271 94.2812 94.2188C94.4688 95.0104 94.7396 95.7083 95.0938 96.3125C95.4688 96.8958 95.9896 97.1875 96.6562 97.1875C97.4479 97.1875 98.1562 96.8542 98.7812 96.1875C99.4062 95.5 99.9583 94.5833 100.438 93.4375C100.917 92.2917 101.323 90.9688 101.656 89.4688C102.01 87.9688 102.302 86.4062 102.531 84.7812C102.781 83.1354 102.979 81.4792 103.125 79.8125C103.271 78.1458 103.375 76.5833 103.438 75.125C103.521 73.6458 103.573 72.3229 103.594 71.1562C103.635 69.9896 103.656 69.0833 103.656 68.4375C103.656 68.0208 103.646 67.6146 103.625 67.2188C103.604 66.8229 103.573 66.4167 103.531 66C104.885 66.0417 106.229 66.0729 107.562 66.0938C108.896 66.1146 110.24 66.125 111.594 66.125C112.635 66.125 113.677 66.125 114.719 66.125C115.781 66.1042 116.844 66.0625 117.906 66ZM156.406 79.875C156.406 81.5 156.26 82.9792 155.969 84.3125C155.698 85.625 155.26 86.8333 154.656 87.9375C154.052 89.0417 153.271 90.0625 152.312 91C151.354 91.9375 150.198 92.8333 148.844 93.6875L156.281 106.938L142.219 109.688L137.406 96.375L133.531 96.5L132.969 109.5H119.531C119.635 104.75 119.729 100.021 119.812 95.3125C119.917 90.6042 120.031 85.875 120.156 81.125C120.198 78.7292 120.24 76.3542 120.281 74C120.323 71.6458 120.406 69.2708 120.531 66.875C121.99 66.3333 123.427 65.8854 124.844 65.5312C126.26 65.1771 127.677 64.9062 129.094 64.7188C130.531 64.5104 131.979 64.375 133.438 64.3125C134.917 64.2292 136.427 64.1875 137.969 64.1875C140.344 64.1875 142.635 64.5208 144.844 65.1875C147.073 65.8333 149.042 66.8125 150.75 68.125C152.458 69.4375 153.823 71.0729 154.844 73.0312C155.885 74.9896 156.406 77.2708 156.406 79.875ZM142.406 80.875C142.406 80 142.281 79.1979 142.031 78.4688C141.802 77.7396 141.448 77.1146 140.969 76.5938C140.51 76.0521 139.927 75.6354 139.219 75.3438C138.531 75.0312 137.719 74.875 136.781 74.875C136.365 74.875 135.958 74.9062 135.562 74.9688C135.167 75.0104 134.781 75.0833 134.406 75.1875L133.906 86.8125H134.656C135.552 86.8125 136.458 86.6979 137.375 86.4688C138.312 86.2396 139.146 85.8854 139.875 85.4062C140.625 84.9271 141.229 84.3125 141.688 83.5625C142.167 82.8125 142.406 81.9167 142.406 80.875Z" fill="#EC1F46"/>
</g>
<defs>
<filter id="filter0_d_13:360" x="0.25" y="0.4375" width="160.156" height="182" filterUnits="userSpaceOnUse" color-interpolation-filters="sRGB">
<feFlood flood-opacity="0" result="BackgroundImageFix"/>
<feColorMatrix in="SourceAlpha" type="matrix" values="0 0 0 0 0 0 0 0 0 0 0 0 0 0 0 0 0 0 127 0" result="hardAlpha"/>
<feOffset dy="4"/>
<feGaussianBlur stdDeviation="2"/>
<feComposite in2="hardAlpha" operator="out"/>
<feColorMatrix type="matrix" values="0 0 0 0 0 0 0 0 0 0 0 0 0 0 0 0 0 0 0.25 0"/>
<feBlend mode="normal" in2="BackgroundImageFix" result="effect1_dropShadow_13:360"/>
<feBlend mode="normal" in="SourceGraphic" in2="effect1_dropShadow_13:360" result="shape"/>
</filter>
</defs>
</svg>
