<svg width="14" height="20" viewBox="0 0 14 20" fill="none" xmlns="http://www.w3.org/2000/svg">
<path d="M6.99988 0C3.12988 0 -0.00012207 3.13 -0.00012207 7C-0.00012207 11.17 4.41988 16.92 6.23988 19.11C6.63988 19.59 7.36988 19.59 7.76988 19.11C9.57988 16.92 13.9999 11.17 13.9999 7C13.9999 3.13 10.8699 0 6.99988 0ZM6.99988 9.5C6.33684 9.5 5.70095 9.23661 5.23211 8.76777C4.76327 8.29893 4.49988 7.66304 4.49988 7C4.49988 6.33696 4.76327 5.70107 5.23211 5.23223C5.70095 4.76339 6.33684 4.5 6.99988 4.5C7.66292 4.5 8.2988 4.76339 8.76764 5.23223C9.23649 5.70107 9.49988 6.33696 9.49988 7C9.49988 7.66304 9.23649 8.29893 8.76764 8.76777C8.2988 9.23661 7.66292 9.5 6.99988 9.5Z" fill="#BDBDBD"/>
</svg>
